<?xml version="1.0" standalone="no"?>
<!DOCTYPE svg PUBLIC "-//W3C//DTD SVG 20010904//EN"
 "http://www.w3.org/TR/2001/REC-SVG-20010904/DTD/svg10.dtd">
<svg version="1.0" xmlns="http://www.w3.org/2000/svg"
 width="1200.000000pt" height="1200.000000pt" viewBox="0 0 1200.000000 1200.000000"
 preserveAspectRatio="xMidYMid meet">

<g transform="translate(0.000000,1200.000000) scale(0.100000,-0.100000)"
fill="#000000" stroke="none">
<path d="M2836 6060 c-209 -9 -232 -12 -476 -51 -363 -58 -611 -136 -847 -267
-127 -70 -176 -122 -193 -203 -19 -90 -8 -184 28 -228 69 -86 143 -93 342 -36
193 56 213 56 730 0 133 -14 588 -66 614 -70 17 -3 54 -7 81 -10 28 -3 68 -7
90 -10 22 -3 60 -7 85 -10 485 -55 1177 -138 1250 -150 129 -21 143 -26 318
-112 144 -71 157 -75 235 -80 173 -11 457 66 1094 296 849 306 1085 384 1588
526 28 8 64 17 80 21 17 4 75 19 130 34 55 15 177 44 270 64 281 60 261 54
175 57 -118 4 -157 5 -455 12 -154 4 -320 9 -370 12 -49 3 -265 7 -480 11
-214 3 -392 7 -395 9 -9 6 -829 20 -1120 20 -282 -1 -381 -10 -601 -61 -58
-13 -154 -31 -212 -39 -131 -20 -166 -14 -367 56 -335 117 -581 174 -840 194
-47 4 -101 9 -120 11 -77 9 -466 12 -634 4z"/>
<path d="M9705 5964 c-11 -1 -76 -8 -145 -14 -69 -6 -156 -15 -195 -20 -752
-101 -1108 -176 -1785 -377 -173 -51 -719 -230 -820 -268 -84 -32 -145 -54
-360 -130 -118 -42 -237 -85 -265 -95 -348 -132 -758 -249 -946 -272 -128 -15
-190 0 -374 91 -77 38 -158 74 -180 80 -56 15 -276 45 -645 86 -303 34 -1038
120 -1110 129 -19 3 -136 16 -260 30 -124 14 -263 30 -310 36 -107 14 -138 18
-225 29 -100 13 -260 6 -330 -14 -137 -40 -163 -46 -225 -51 -82 -8 -137 7
-179 48 -50 49 -73 107 -75 189 l-1 70 -17 -38 c-28 -62 -24 -152 11 -222 79
-155 235 -196 558 -146 126 19 285 11 740 -40 172 -19 316 -35 321 -35 8 0 62
-153 62 -176 0 -6 11 -16 24 -22 22 -10 25 -19 28 -69 l3 -58 65 -5 65 -5 -85
-13 c-90 -14 -105 -21 -132 -63 l-17 -27 67 18 c37 10 85 24 107 32 76 29 80
29 25 1 -57 -29 -151 -62 -255 -88 -33 -8 -103 -26 -154 -40 -52 -14 -102 -25
-111 -25 -9 0 -21 14 -28 33 -23 65 -73 127 -126 157 -62 36 -105 37 -283 11
-145 -22 -214 -51 -272 -118 -65 -73 -84 -136 -89 -288 -3 -114 -1 -137 18
-187 27 -74 83 -130 154 -157 68 -25 133 -27 292 -6 104 14 123 20 163 49 61
43 113 120 141 207 13 39 28 73 34 75 6 2 108 15 226 29 118 15 323 44 455 66
132 22 278 46 325 54 138 21 437 75 539 96 52 11 98 16 102 12 3 -5 12 -26 19
-47 7 -23 34 -61 60 -87 67 -67 157 -94 279 -85 144 11 272 36 318 62 56 32
106 93 140 170 26 60 30 64 60 64 30 0 323 41 673 94 164 25 165 25 185 6 33
-31 76 -26 111 13 33 37 -16 27 569 118 105 16 226 35 270 43 113 21 246 38
252 32 3 -2 -17 -8 -44 -11 -26 -4 -91 -15 -143 -25 -52 -10 -115 -21 -140
-25 -25 -3 -92 -14 -150 -25 -136 -24 -315 -55 -411 -70 -42 -7 -82 -16 -88
-19 -16 -10 58 -232 78 -238 39 -11 47 -24 62 -94 l15 -74 110 4 c60 1 107 0
104 -3 -3 -3 -69 -16 -147 -29 -77 -14 -147 -29 -156 -33 -9 -5 -27 -26 -41
-47 l-26 -37 28 6 c53 12 68 16 177 51 102 32 163 57 258 103 21 10 33 12 27
5 -10 -12 -123 -70 -225 -116 -77 -34 -249 -87 -323 -100 -37 -6 -136 -29
-220 -50 -173 -44 -190 -46 -199 -21 -39 115 -115 206 -210 249 -54 25 -62 26
-177 20 -159 -8 -358 -40 -421 -68 -73 -31 -147 -91 -184 -145 -41 -63 -67
-145 -53 -170 9 -16 13 -10 27 39 20 68 82 165 130 202 70 52 133 73 315 100
191 29 290 15 373 -53 27 -22 29 -23 12 -3 -11 12 -32 30 -47 39 -50 29 -30
34 23 5 54 -29 118 -94 145 -147 42 -83 49 -119 49 -256 0 -153 -16 -217 -80
-322 -23 -40 -30 -58 -20 -58 35 0 107 128 122 218 3 18 8 34 12 36 3 2 58 9
121 16 156 15 527 64 718 95 86 14 173 27 192 30 19 3 85 14 145 25 61 11 171
29 245 40 74 11 171 27 215 35 44 8 175 31 290 50 116 20 255 45 309 55 54 11
100 20 102 20 1 0 17 -28 34 -63 51 -103 142 -177 265 -213 76 -23 215 -23
420 0 179 20 244 37 304 79 106 73 200 202 186 255 l-7 27 -11 -30 c-28 -80
-121 -200 -186 -238 -34 -20 -41 -13 -13 12 28 25 72 87 72 101 0 7 -14 -6
-30 -29 -29 -40 -118 -106 -129 -96 -2 3 7 18 21 33 33 36 71 92 62 92 -8 0
-54 -52 -54 -62 0 -12 -82 -68 -99 -68 -9 0 -12 3 -6 8 24 17 65 75 64 90 0
13 -2 14 -6 3 -12 -30 -107 -111 -131 -111 -11 0 -7 9 16 33 18 18 32 39 32
47 0 9 -11 3 -28 -15 -32 -36 -85 -75 -102 -75 -6 0 5 19 24 42 20 23 36 48
36 56 0 8 -19 -6 -41 -32 -36 -41 -84 -76 -104 -76 -4 0 12 21 34 46 23 26 41
54 41 62 0 8 -18 -6 -40 -31 -38 -43 -97 -87 -116 -87 -4 0 4 12 18 28 36 39
58 74 57 92 0 13 -1 13 -6 0 -10 -28 -103 -110 -149 -131 -41 -18 -52 -19 -93
-9 -115 29 -215 99 -263 187 -28 49 -21 56 18 19 39 -37 93 -53 122 -37 14 9
11 10 -17 11 -41 0 -91 42 -91 75 0 17 11 24 70 39 105 27 140 69 140 166 0
96 -70 137 -202 118 -46 -6 -74 -6 -80 0 -12 12 27 143 51 169 9 10 23 31 31
47 29 58 137 128 240 157 61 17 76 32 25 26 -180 -25 -336 -170 -376 -350 -9
-45 -17 -58 -33 -62 -91 -18 -510 -22 -624 -6 -132 20 -232 51 -232 72 0 5 20
17 45 28 36 16 50 29 65 64 21 48 72 239 65 245 -2 3 -124 -10 -270 -27 -146
-18 -270 -31 -276 -29 -10 3 330 68 546 104 111 19 125 18 125 -6 0 -30 44
-54 87 -47 41 7 82 48 83 83 0 15 11 25 40 37 34 13 40 20 40 45 0 25 5 31 28
36 15 3 146 26 292 52 146 25 306 55 355 66 50 11 124 26 165 33 72 12 174 32
495 97 83 17 161 32 175 35 68 12 328 68 430 93 63 15 133 31 155 35 73 12
242 63 286 86 61 31 124 84 149 126 30 51 30 145 0 198 -49 89 -95 114 -229
126 -90 8 -282 10 -326 3z m333 -154 c50 -5 117 -20 148 -31 65 -25 68 -36 3
-14 -91 31 -398 36 -614 10 -262 -31 -672 -100 -935 -156 -52 -11 -126 -27
-165 -35 -243 -52 -565 -132 -800 -200 -184 -53 -224 -65 -380 -113 -168 -52
-570 -185 -740 -245 -55 -19 -158 -56 -230 -81 -284 -101 -361 -127 -385 -132
l-25 -5 26 15 c14 8 36 16 50 19 13 3 62 20 109 38 275 103 970 343 1190 410
41 12 86 26 100 31 35 12 221 67 300 88 36 10 101 28 145 41 190 52 529 135
675 164 36 8 133 27 215 44 646 132 1065 180 1313 152z m-6108 -910 c180 -21
313 -40 318 -45 2 -1 -3 -22 -10 -45 -9 -28 -21 -45 -36 -51 -33 -13 -396 -12
-460 0 -53 11 -142 45 -142 55 0 3 14 13 31 21 17 9 37 31 44 48 18 44 24 48
59 42 17 -3 105 -14 196 -25z m-655 -30 c17 -22 45 -49 63 -61 31 -20 38 -21
109 -10 42 6 78 9 81 6 9 -9 -47 -24 -113 -31 -68 -7 -91 1 -134 47 -18 19
-27 21 -103 16 l-83 -6 65 16 c98 23 95 22 82 35 -7 7 -12 16 -12 20 0 17 16
5 45 -32z m1018 -32 c3 -10 8 -10 16 -2 20 19 133 -13 356 -102 116 -46 248
-94 295 -107 97 -28 98 -32 55 -117 -24 -46 -90 -120 -107 -120 -5 0 3 17 18
38 l28 37 -45 -42 c-49 -47 -85 -60 -45 -16 38 41 22 41 -21 -1 -47 -46 -64
-47 -29 -2 34 45 34 59 0 18 -29 -34 -74 -67 -74 -54 0 4 9 18 20 30 38 40 20
40 -20 -1 -44 -43 -65 -44 -31 -1 33 42 25 49 -10 9 -18 -20 -40 -40 -51 -46
-17 -9 -18 -8 -9 10 6 11 16 23 21 26 6 3 10 11 10 17 0 6 -16 -5 -35 -25 -36
-37 -73 -53 -42 -19 31 34 18 32 -28 -2 -24 -19 -54 -37 -65 -41 -31 -10 -112
21 -158 60 -36 32 -98 132 -87 143 2 2 19 -12 38 -32 35 -37 60 -44 87 -25 12
8 9 9 -11 5 -18 -4 -32 1 -48 15 -30 28 -23 51 19 61 108 27 125 189 22 215
-13 3 -43 3 -68 0 -38 -4 -44 -2 -44 14 0 46 31 88 43 57z m1613 -35 c-9 -10
-79 -33 -85 -28 -2 3 7 8 20 13 13 5 31 12 39 15 22 8 34 8 26 0z m-146 -53
c-8 -5 -22 -9 -30 -9 -10 0 -8 3 5 9 27 12 43 12 25 0z m-2033 -14 c112 -23
212 -28 327 -16 59 6 111 9 113 6 11 -11 -81 -27 -187 -33 -121 -6 -254 12
-309 42 -33 18 -27 18 56 1z m-1380 -61 c20 -8 38 -13 41 -10 3 3 -1 5 -8 5
-7 0 -11 3 -8 6 16 16 109 -60 135 -111 64 -121 56 -333 -17 -459 -32 -57 -98
-126 -87 -91 6 17 5 18 -5 5 -16 -20 -60 -50 -72 -50 -5 0 1 12 15 27 20 23
18 22 -14 -5 -43 -36 -70 -43 -41 -10 l19 22 -32 -22 c-40 -28 -51 -28 -27 0
16 19 13 18 -18 -5 -38 -28 -54 -34 -43 -17 9 14 -8 13 -23 -2 -17 -17 -27 -1
-11 19 7 10 -1 5 -19 -11 -33 -31 -55 -30 -31 1 7 10 1 7 -13 -6 -23 -20 -34
-23 -68 -17 -159 25 -247 180 -220 387 14 116 38 175 92 235 56 60 109 84 228
104 41 6 82 13 90 15 42 8 105 3 137 -10z m903 0 c0 -12 -126 -86 -188 -109
-115 -44 -363 -101 -337 -78 6 4 57 20 115 34 129 32 254 77 340 122 75 40 70
38 70 31z m3471 -128 c93 -92 89 -91 252 -83 78 4 139 5 136 1 -8 -8 -104 -32
-182 -45 -93 -16 -130 -7 -186 45 l-46 43 -90 -9 c-162 -16 -175 -17 -175 -9
0 5 12 11 28 14 15 3 68 13 117 22 50 9 91 18 93 19 2 2 -4 15 -13 29 -31 46
7 31 66 -27z m-2922 8 c-3 -2 -43 -11 -89 -19 -298 -53 -374 -66 -445 -76 -44
-5 -93 -13 -110 -15 -17 -3 -25 -2 -20 3 13 12 128 35 355 71 243 40 321 49
309 36z m134 -12 c-7 -2 -19 -2 -25 0 -7 3 -2 5 12 5 14 0 19 -2 13 -5z m-45
-8 c-5 -5 -227 -48 -308 -60 -25 -3 -81 -13 -125 -21 -44 -8 -166 -28 -271
-44 -276 -43 -318 -37 -59 9 61 11 164 30 230 41 286 52 547 88 533 75z m231
1 c-13 -13 -1314 -227 -1367 -225 -61 2 614 121 1233 217 64 10 141 15 134 8z
m3261 -161 c122 -23 327 -28 485 -12 77 8 142 13 144 12 6 -6 -71 -24 -149
-35 -97 -14 -349 -14 -420 -1 -74 15 -163 42 -175 54 -7 6 -1 7 15 3 14 -4 59
-13 100 -21z m-680 -79 c0 -8 -124 -82 -180 -108 -76 -36 -216 -83 -335 -112
-99 -24 -255 -50 -262 -42 -2 2 40 13 94 25 249 56 485 135 608 206 57 33 75
40 75 31z m1403 -143 c-7 -2 -19 -2 -25 0 -7 3 -2 5 12 5 14 0 19 -2 13 -5z
m-653 -12 c-8 -4 -55 -15 -105 -24 -226 -41 -437 -77 -515 -87 -47 -6 -123
-18 -169 -26 -46 -8 -100 -14 -120 -13 l-36 1 35 9 c79 19 469 85 805 137 80
13 125 14 105 3z m560 -6 c-30 -7 -84 -18 -120 -23 -36 -5 -211 -35 -390 -65
-179 -30 -428 -72 -555 -92 -126 -20 -297 -47 -380 -61 -82 -13 -213 -33 -290
-45 -77 -11 -167 -24 -200 -29 -60 -10 -119 -12 -100 -5 39 16 1672 282 1935
316 47 6 87 13 89 15 2 2 18 4 35 3 24 0 18 -4 -24 -14z m-330 -6 c-43 -11
-223 -43 -385 -70 -66 -10 -156 -25 -200 -33 -104 -19 -229 -39 -440 -71 -93
-15 -192 -30 -218 -36 -26 -5 -65 -9 -85 -8 l-37 1 30 9 c39 12 790 139 1065
179 118 18 217 34 219 36 2 2 23 4 45 3 l41 -1 -35 -9z"/>
<path d="M2034 4489 c29 -52 51 -182 42 -248 -4 -25 -9 -64 -11 -86 l-5 -40
14 35 c23 56 20 214 -5 287 -11 34 -29 69 -40 79 -17 15 -16 11 5 -27z"/>
<path d="M1916 4358 c-28 -28 -36 -44 -36 -73 0 -84 66 -131 89 -64 15 45 14
131 -3 154 -13 18 -15 18 -50 -17z m29 -39 c9 -28 -2 -86 -18 -92 -9 -3 -11
11 -9 54 4 60 15 76 27 38z"/>
<path d="M1826 4338 c-8 -32 -7 -131 2 -145 4 -6 7 29 7 78 0 49 -1 89 -1 89
-1 0 -4 -10 -8 -22z"/>
<path d="M2051 4094 c0 -11 3 -14 6 -6 3 7 2 16 -1 19 -3 4 -6 -2 -5 -13z"/>
<path d="M9107 4769 c7 -7 15 -10 18 -7 3 3 -2 9 -12 12 -14 6 -15 5 -6 -5z"/>
<path d="M8204 4644 c-18 -15 -18 -15 3 -5 53 26 108 6 168 -61 28 -33 36 -37
30 -19 -9 31 -44 70 -77 87 -36 19 -99 18 -124 -2z"/>
<path d="M8214 4576 c-27 -12 -88 -75 -80 -83 2 -2 21 15 43 37 31 30 49 40
72 40 46 0 90 -26 104 -60 4 -12 6 -12 6 1 1 9 -12 31 -28 48 -32 34 -65 39
-117 17z"/>
<path d="M4962 4091 c67 -79 100 -250 79 -406 -11 -77 -34 -157 -54 -182 -6
-9 -6 -13 1 -13 6 0 14 10 18 23 4 12 9 24 13 27 3 3 15 32 26 65 28 83 28
274 1 360 -26 80 -50 117 -101 155 -11 8 -3 -5 17 -29z"/>
<path d="M8901 4044 c0 -11 3 -14 6 -6 3 7 2 16 -1 19 -3 4 -6 -2 -5 -13z"/>
<path d="M4825 3887 c-46 -46 -60 -103 -39 -157 16 -39 54 -70 87 -70 28 0 48
145 31 229 -9 41 -36 41 -79 -2z m38 -51 c11 -33 1 -112 -16 -119 -9 -3 -12
17 -12 74 0 80 11 97 28 45z"/>
<path d="M4705 3839 c-16 -62 -16 -79 -5 -123 7 -28 17 -58 22 -66 7 -11 8 -8
3 10 -14 59 -16 129 -6 184 16 84 7 81 -14 -5z"/>
<path d="M5410 3425 c-7 -8 -8 -15 -2 -15 5 0 15 7 22 15 7 8 8 15 2 15 -5 0
-15 -7 -22 -15z"/>
<path d="M5091 3396 l-24 -31 28 27 c16 15 27 29 24 31 -2 3 -15 -10 -28 -27z"/>
<path d="M5161 3407 c-13 -21 -12 -21 5 -5 10 10 16 20 13 22 -3 3 -11 -5 -18
-17z"/>
<path d="M5274 3404 c-19 -17 -22 -22 -8 -16 20 10 52 42 42 42 -3 0 -18 -12
-34 -26z"/>
<path d="M7030 780 c0 -32 -7 -35 -64 -31 -18 2 -26 -1 -21 -8 9 -16 -8 -14
-31 4 -26 20 -48 19 -94 -5 -86 -44 -93 -155 -14 -215 23 -17 87 -19 117 -3
21 11 21 10 6 -13 -22 -33 -84 -39 -111 -10 -10 12 -25 21 -33 21 -23 0 -18
-34 9 -59 20 -19 33 -22 86 -19 89 4 104 25 108 158 4 90 6 98 23 97 17 -1 19
-10 19 -73 0 -66 2 -74 26 -93 30 -24 54 -27 54 -8 0 9 3 9 9 -1 5 -8 17 -12
27 -10 17 3 19 14 22 90 2 76 5 86 22 91 13 3 20 14 20 30 0 27 -15 44 -25 28
-3 -6 -22 -8 -43 -6 -20 2 -43 4 -49 4 -8 1 -13 14 -13 31 0 25 -4 30 -25 30
-21 0 -25 -5 -25 -30z m-122 -88 c56 -43 30 -136 -38 -134 -45 1 -65 24 -65
73 0 31 6 45 25 60 31 23 49 23 78 1z m212 -63 c0 -62 -2 -70 -17 -67 -14 3
-19 15 -21 62 -3 56 5 75 31 76 4 0 7 -32 7 -71z"/>
<path d="M6361 742 c-18 -12 -25 -14 -29 -4 -2 6 -10 12 -18 12 -11 0 -14 -28
-14 -156 0 -143 1 -155 18 -152 12 2 18 16 22 48 3 28 8 40 13 33 5 -8 28 -13
55 -13 74 1 112 42 112 123 0 51 -23 87 -72 111 -39 20 -57 19 -87 -2z m78
-47 c64 -32 51 -124 -19 -140 -70 -16 -111 90 -52 134 33 25 35 25 71 6z"/>
<path d="M6615 750 c-4 -6 -21 -8 -41 -4 l-34 6 0 -122 c0 -120 0 -121 23
-118 20 3 22 9 25 86 3 73 5 84 26 97 19 13 28 13 50 4 25 -12 26 -15 26 -101
0 -82 1 -88 20 -88 29 0 33 18 23 117 -8 84 -9 88 -42 110 -36 25 -66 29 -76
13z"/>
<path d="M7277 743 c-59 -31 -84 -112 -52 -173 22 -42 53 -60 106 -60 40 0 53
5 78 31 17 17 31 35 31 40 0 21 -32 20 -56 -2 -39 -37 -124 -26 -124 17 0 9
25 13 95 16 84 3 95 1 95 -14 0 -10 16 -33 35 -53 31 -30 42 -35 85 -35 41 0
53 5 79 31 17 17 31 35 31 40 0 21 -32 20 -56 -2 -30 -28 -91 -30 -111 -3 -7
10 -13 21 -13 26 0 4 41 8 90 8 l90 0 0 38 c0 20 -6 44 -13 52 -21 27 -74 60
-96 60 -34 0 -101 -48 -116 -83 -11 -24 -14 -27 -15 -12 -1 25 -16 44 -57 73
-35 25 -65 26 -106 5z m88 -49 c14 -9 25 -20 25 -24 0 -5 -29 -10 -65 -12 -36
-1 -65 -1 -65 2 1 18 43 49 68 50 7 0 24 -7 37 -16z m250 -9 l30 -24 -74 -1
-74 0 23 25 c30 32 57 32 95 0z"/>
<path d="M4425 708 c-3 -7 -13 -57 -24 -110 l-18 -98 63 0 c52 0 67 4 93 25
41 35 57 86 42 136 -7 21 -20 43 -31 49 -27 14 -120 13 -125 -2z m113 -80 c3
-40 -1 -52 -22 -73 -22 -22 -64 -33 -78 -20 -2 3 2 37 10 75 l16 71 35 -3 c35
-3 36 -4 39 -50z"/>
<path d="M4990 700 c0 -11 7 -20 15 -20 8 0 19 9 25 20 9 18 8 20 -15 20 -18
0 -25 -5 -25 -20z"/>
<path d="M5714 685 c-7 -38 -19 -52 -29 -35 -10 16 -62 12 -80 -7 -21 -20 -35
-57 -35 -89 0 -34 36 -68 63 -59 12 4 36 6 52 6 31 -1 31 -1 49 86 10 49 20
98 23 111 4 17 1 22 -15 22 -16 0 -23 -8 -28 -35z m-29 -74 c16 -50 -25 -103
-60 -77 -30 22 -3 96 36 96 10 0 20 -9 24 -19z"/>
<path d="M5870 663 c-6 -32 -16 -74 -21 -93 -14 -54 -11 -70 11 -70 11 0 20 4
20 10 0 5 13 2 29 -7 27 -16 30 -16 54 0 37 24 56 90 36 126 -12 21 -22 26
-52 26 -20 0 -37 0 -37 0 0 0 4 15 9 33 9 30 8 32 -14 32 -21 0 -25 -7 -35
-57z m89 -55 c9 -26 5 -45 -16 -70 -23 -26 -43 -11 -43 31 0 57 42 85 59 39z"/>
<path d="M4652 653 c-18 -7 -42 -57 -42 -88 0 -14 11 -37 26 -52 20 -20 31
-24 57 -19 35 7 65 31 54 43 -4 4 -20 2 -36 -4 -18 -6 -35 -7 -45 -1 -29 16
-17 27 37 30 50 3 52 4 55 34 2 19 -3 38 -13 48 -16 15 -65 20 -93 9z m66 -45
c3 -14 -3 -18 -27 -18 -29 0 -41 17 -24 34 13 13 48 1 51 -16z"/>
<path d="M4805 636 c-21 -32 -11 -51 36 -70 21 -9 39 -20 39 -25 0 -18 -33
-21 -57 -6 -15 10 -29 13 -39 7 -14 -8 -12 -12 11 -30 41 -33 102 -24 124 17
16 29 4 47 -40 65 -21 9 -39 20 -39 26 0 13 37 13 45 0 8 -12 16 -12 34 -1 27
17 -6 41 -55 41 -35 0 -47 -5 -59 -24z"/>
<path d="M4971 603 c-7 -32 -15 -68 -18 -80 -4 -18 -1 -23 16 -23 13 0 22 8
26 23 30 133 30 137 7 137 -15 0 -22 -13 -31 -57z"/>
<path d="M5051 634 c-24 -31 -28 -91 -7 -119 10 -14 21 -17 48 -12 32 5 35 3
30 -15 -6 -26 -30 -34 -53 -20 -26 16 -49 15 -49 -3 0 -33 78 -47 117 -20 15
11 27 40 42 106 12 50 21 95 21 100 0 14 -38 11 -43 -3 -4 -10 -7 -10 -18 0
-23 21 -66 14 -88 -14z m87 -36 c4 -36 -14 -68 -38 -68 -28 0 -37 43 -15 76
21 32 49 28 53 -8z"/>
<path d="M5230 603 c-6 -32 -14 -68 -17 -80 -4 -18 -1 -23 15 -23 16 0 23 11
32 50 13 54 32 80 57 80 13 0 14 -8 9 -42 -4 -24 -9 -53 -13 -65 -4 -18 -1
-23 16 -23 13 0 22 8 26 23 19 84 21 106 13 121 -11 19 -59 21 -76 4 -9 -9
-12 -9 -12 0 0 7 -9 12 -19 12 -16 0 -22 -11 -31 -57z"/>
<path d="M5424 635 c-20 -20 -25 -33 -22 -67 5 -72 74 -100 124 -50 16 15 16
17 1 20 -9 2 -24 -1 -34 -6 -11 -7 -24 -7 -35 -1 -32 17 -19 28 35 31 49 3 52
5 55 31 8 64 -74 92 -124 42z m84 -27 c3 -14 -3 -18 -27 -18 -29 0 -41 17 -24
34 13 13 48 1 51 -16z"/>
<path d="M6040 649 c0 -5 5 -41 11 -79 11 -73 2 -110 -26 -110 -8 0 -15 -7
-15 -15 0 -16 36 -20 57 -7 20 13 133 217 122 220 -21 8 -39 -10 -67 -65 l-30
-57 -7 62 c-6 52 -10 62 -26 62 -10 0 -19 -5 -19 -11z"/>
</g>
</svg>
